<svg width="200" height="40" viewBox="0 0 200 40" xmlns="http://www.w3.org/2000/svg">
  <!-- Define gradient -->
  <defs>
    <linearGradient id="plantGradient" x1="0%" y1="0%" x2="100%" y2="0%">
      <stop offset="0%" style="stop-color:#8BC34A;stop-opacity:1" />
      <stop offset="100%" style="stop-color:#2E7D32;stop-opacity:1" />
    </linearGradient>
    
    <!-- Shadow gradient for depth -->
    <linearGradient id="shadowGradient" x1="0%" y1="0%" x2="0%" y2="100%">
      <stop offset="0%" style="stop-color:#2E7D32;stop-opacity:0.1" />
      <stop offset="100%" style="stop-color:#2E7D32;stop-opacity:0.3" />
    </linearGradient>
  </defs>
  
  <!-- Progress bar background -->
  <rect x="10" y="15" width="180" height="10" rx="5" ry="5" fill="#F8F9FA" stroke="#E0E0E0" stroke-width="0.5"/>
  
  <!-- Progress fill (set to ~65% for demo) -->
  <rect x="10" y="15" width="117" height="10" rx="5" ry="5" fill="url(#plantGradient)"/>
  
  <!-- Subtle shadow inside progress -->
  <rect x="10" y="15" width="117" height="3" rx="5" ry="1.5" fill="url(#shadowGradient)"/>
  
  <!-- Plant growth markers along the bar -->
  <!-- 25% marker - small sprout -->
  <g transform="translate(55, 20)">
    <circle cx="0" cy="0" r="1.5" fill="#8BC34A" opacity="0.8"/>
    <path d="M-1 -2 Q0 -4 1 -2" stroke="#2E7D32" stroke-width="0.5" fill="none"/>
  </g>
  
  <!-- 50% marker - growing plant -->
  <g transform="translate(100, 20)">
    <circle cx="0" cy="0" r="1.5" fill="#8BC34A" opacity="0.8"/>
    <ellipse cx="-1" cy="-3" rx="1.5" ry="2" fill="#8BC34A" opacity="0.7"/>
    <ellipse cx="1" cy="-3" rx="1.5" ry="2" fill="#2E7D32" opacity="0.7"/>
  </g>
  
  <!-- 75% marker - fuller plant -->
  <g transform="translate(145, 20)">
    <circle cx="0" cy="0" r="1.5" fill="#8BC34A" opacity="0.8"/>
    <ellipse cx="-1.5" cy="-3.5" rx="2" ry="2.5" fill="#8BC34A" opacity="0.7"/>
    <ellipse cx="1.5" cy="-3.5" rx="2" ry="2.5" fill="#2E7D32" opacity="0.7"/>
    <ellipse cx="0" cy="-5" rx="1.5" ry="2" fill="#8BC34A" opacity="0.6"/>
  </g>
  
  <!-- Progress tip leaf icon -->
  <g transform="translate(127, 20)">
    <!-- Main leaf -->
    <ellipse cx="0" cy="-4" rx="3" ry="6" fill="#2E7D32" transform="rotate(-10 0 -4)"/>
    <!-- Leaf vein -->
    <line x1="0" y1="-8" x2="0" y2="0" stroke="#8BC34A" stroke-width="0.5" opacity="0.8"/>
    <!-- Small side leaves -->
    <ellipse cx="-2" cy="-6" rx="1.5" ry="3" fill="#8BC34A" opacity="0.8" transform="rotate(-25 -2 -6)"/>
    <ellipse cx="2" cy="-6" rx="1.5" ry="3" fill="#8BC34A" opacity="0.8" transform="rotate(25 2 -6)"/>
  </g>
  
  <!-- Subtle glow at progress tip -->
  <circle cx="127" cy="20" r="8" fill="#8BC34A" opacity="0.1"/>
</svg>