<svg width="120" height="120" viewBox="0 0 120 120" xmlns="http://www.w3.org/2000/svg">
  <!-- Human silhouette -->
  <circle cx="60" cy="45" r="18" fill="#2E7D32" opacity="0.8"/>
  
  <!-- Body/shoulders -->
  <path d="M35 75 Q35 65 45 62 Q52.5 60 60 60 Q67.5 60 75 62 Q85 65 85 75 L85 95 Q85 100 80 100 L40 100 Q35 100 35 95 Z" fill="#2E7D32" opacity="0.8"/>
  
  <!-- Leaf crown -->
  <!-- Center leaf -->
  <ellipse cx="60" cy="28" rx="4" ry="8" fill="#8BC34A" transform="rotate(-10 60 28)"/>
  
  <!-- Left leaves -->
  <ellipse cx="50" cy="30" rx="3.5" ry="7" fill="#2E7D32" transform="rotate(-25 50 30)"/>
  <ellipse cx="45" cy="33" rx="3" ry="6" fill="#8BC34A" transform="rotate(-35 45 33)"/>
  
  <!-- Right leaves -->
  <ellipse cx="70" cy="30" rx="3.5" ry="7" fill="#2E7D32" transform="rotate(25 70 30)"/>
  <ellipse cx="75" cy="33" rx="3" ry="6" fill="#8BC34A" transform="rotate(35 75 33)"/>
  
  <!-- Additional small leaves for fullness -->
  <ellipse cx="55" cy="26" rx="2.5" ry="5" fill="#8BC34A" transform="rotate(-15 55 26)"/>
  <ellipse cx="65" cy="26" rx="2.5" ry="5" fill="#8BC34A" transform="rotate(15 65 26)"/>
  
  <!-- Subtle leaf details -->
  <line x1="60" y1="20" x2="60" y2="36" stroke="#2E7D32" stroke-width="0.5" opacity="0.6"/>
  <line x1="50" y1="23" x2="50" y2="37" stroke="#2E7D32" stroke-width="0.4" opacity="0.6"/>
  <line x1="70" y1="23" x2="70" y2="37" stroke="#2E7D32" stroke-width="0.4" opacity="0.6"/>
</svg>