<svg width="48" height="48" viewBox="0 0 48 48" fill="none" xmlns="http://www.w3.org/2000/svg">
  <rect width="48" height="48" fill="none"/>
  <!-- Bell -->
  <path d="M24 6C19.58 6 16 9.58 16 14V21C16 22.66 15.25 24.23 13.97 25.31L12 27V29H36V27L34.03 25.31C32.75 24.23 32 22.66 32 21V14C32 9.58 28.42 6 24 6Z" fill="#B0B0B0"/>
  <!-- Bell clapper -->
  <circle cx="24" cy="33" r="3" fill="#B0B0B0"/>
  <!-- Leaf -->
  <path d="M36.5 16C36.5 14.07 35.13 12.5 33.5 12.5C32.44 12.5 31.5 13.2 31.1 14.15C30.56 15.48 31.24 17.3 33.26 18.74C34.8 19.85 36.5 18.42 36.5 16Z" fill="#2E7D32"/>
</svg>
