<?xml version="1.0" encoding="UTF-8"?>
<svg width="1024" height="1024" viewBox="0 0 1024 1024" xmlns="http://www.w3.org/2000/svg">
  <!-- Background with rounded corners -->
  <rect x="0" y="0" width="1024" height="1024" rx="180" ry="180" fill="#2E7D32"/>
  
  <!-- Leaf icon (eco icon) centered and scaled -->
  <g transform="translate(512, 512)">
    <!-- Main leaf shape -->
    <path d="M-120,-160 C-60,-200 60,-200 120,-160 C160,-100 160,20 120,80 C60,120 -60,120 -120,80 C-160,20 -160,-100 -120,-160 Z" fill="#FFFFFF" opacity="0.95"/>
    
    <!-- Leaf vein/stem -->
    <path d="M0,-140 Q0,-70 0,0 Q0,70 0,100" stroke="#FFFFFF" stroke-width="8" fill="none" opacity="0.8"/>
    
    <!-- Leaf side veins -->
    <path d="M0,-80 Q-40,-60 -80,-40" stroke="#FFFFFF" stroke-width="4" fill="none" opacity="0.6"/>
    <path d="M0,-40 Q-50,-20 -90,0" stroke="#FFFFFF" stroke-width="4" fill="none" opacity="0.6"/>
    <path d="M0,0 Q-40,20 -80,40" stroke="#FFFFFF" stroke-width="4" fill="none" opacity="0.6"/>
    
    <path d="M0,-80 Q40,-60 80,-40" stroke="#FFFFFF" stroke-width="4" fill="none" opacity="0.6"/>
    <path d="M0,-40 Q50,-20 90,0" stroke="#FFFFFF" stroke-width="4" fill="none" opacity="0.6"/>
    <path d="M0,0 Q40,20 80,40" stroke="#FFFFFF" stroke-width="4" fill="none" opacity="0.6"/>
    
    <!-- Small decorative leaves -->
    <ellipse cx="-40" cy="120" rx="25" ry="15" fill="#FFFFFF" opacity="0.7" transform="rotate(-30 -40 120)"/>
    <ellipse cx="40" cy="120" rx="25" ry="15" fill="#FFFFFF" opacity="0.7" transform="rotate(30 40 120)"/>
  </g>
</svg>
